# xmcd CD database file
#
# Track frame offsets:
#	150
#	15962
#	32819
#	52912
#	71065
#	85668
#	104600
#	121389
#	139318
#	157154
#	174162
#	190646
#	204452
#	223163
#	241643
#	255457
#	274395
#	294279
#	313002
#
# Disc length: 4463 seconds
#
# Revision: 2
# Processed by: cddbd v1.5.2PL0 Copyright (c) Steve Scherf et al.
# Submitted via: CDex 1.70beta2
#
DISCID=0c116d13
DTITLE=ROUPA NOVA - ROUPAcústico
DYEAR=2006
DGENRE=Sertanejo
TTITLE0=Dona
TTITLE1=Ja nem sei mais
TTITLE2=A Força do amor
TTITLE3=Volta pra mim
TTITLE4=Anjo
TTITLE5=A Flor da pele
TTITLE6=Seguindo no trem azul
TTITLE7=Linda demais
TTITLE8=Sapato velho
TTITLE9=Bem simples
TTITLE10=Amar é...
TTITLE11=Chuva de Prata
TTITLE12=Whisky a Go Go
TTITLE13=A Viagem
TTITLE14=Roupa Nova
TTITLE15=A Lenda
TTITLE16=Coração Pirata
TTITLE17=Meu universo é você
TTITLE18=Razão de viver
EXTD=YEAR: 2006
EXTT0=
EXTT1=
EXTT2=
EXTT3=
EXTT4=
EXTT5=
EXTT6=
EXTT7=
EXTT8=
EXTT9=
EXTT10=
EXTT11=
EXTT12=
EXTT13=
EXTT14=
EXTT15=
EXTT16=
EXTT17=
EXTT18=
PLAYORDER=
